<svg width="153" height="71" viewBox="0 0 153 71" fill="none" xmlns="http://www.w3.org/2000/svg">
<g clip-path="url(#clip0)">
<mask id="mask0" mask-type="alpha" maskUnits="userSpaceOnUse" x="0" y="63" width="4" height="8">
<path d="M0.0323181 63.7793H3.77974V70.1975H0.0323181V63.7793Z" fill="white"/>
</mask>
<g mask="url(#mask0)">
<path fill-rule="evenodd" clip-rule="evenodd" d="M0.810782 68.2563V68.437C0.810782 69.2776 1.34574 69.5435 1.85538 69.5435C2.48462 69.5435 2.96787 69.2776 2.96787 68.5399C2.96787 67.1675 0.171845 67.3213 0.171845 65.4605C0.171845 64.3631 0.957317 63.7793 2.00138 63.7793C3.1408 63.7793 3.77974 64.3277 3.72802 65.5897H2.89945C2.90753 64.9115 2.69204 64.4655 1.94104 64.4655C1.46642 64.4655 0.983176 64.7051 0.983176 65.3747C0.983176 66.7381 3.77974 66.5408 3.77974 68.505C3.77974 69.8089 2.87305 70.2297 1.84623 70.2297C0.00807032 70.2463 0.00807031 68.8487 0.0253097 68.2563H0.810782Z" fill="#FFFFFE"/>
</g>
<path fill-rule="evenodd" clip-rule="evenodd" d="M6.54938 63.9072H7.39519L8.56909 69.2774H8.58579L9.83672 63.9072H10.8646L11.9949 69.2774H12.0121L13.2808 63.9072H14.1089L12.4604 70.1008H11.4939L10.3119 64.7312H10.2946L9.03509 70.1008H8.0686L6.54938 63.9072Z" fill="#FFFFFE"/>
<mask id="mask1" mask-type="alpha" maskUnits="userSpaceOnUse" x="17" y="63" width="16" height="8">
<path d="M17.164 63.7793H32.2146V70.1975H17.164V63.7793Z" fill="white"/>
</mask>
<g mask="url(#mask1)">
<path fill-rule="evenodd" clip-rule="evenodd" d="M17.164 70.1011H17.9581V63.9075H17.164V70.1011Z" fill="#FFFFFE"/>
<path fill-rule="evenodd" clip-rule="evenodd" d="M22.2556 68.2563V68.437C22.2556 69.2776 22.79 69.5435 23.2996 69.5435C23.9294 69.5435 24.4132 69.2776 24.4132 68.5399C24.4132 67.1675 21.6172 67.3213 21.6172 65.4605C21.6172 64.3631 22.4026 63.7793 23.4467 63.7793C24.5851 63.7793 25.224 64.3277 25.1728 65.5897H24.3442C24.3529 64.9115 24.1368 64.4655 23.3858 64.4655C22.9118 64.4655 22.428 64.7051 22.428 65.3747C22.428 66.7381 25.224 66.5408 25.224 68.505C25.224 69.8089 24.3178 70.2297 23.291 70.2297C21.4523 70.2463 21.4523 68.8487 21.4706 68.2563H22.2556Z" fill="#FFFFFE"/>
<path fill-rule="evenodd" clip-rule="evenodd" d="M29.2456 68.2563V68.437C29.2456 69.2776 29.7806 69.5435 30.2897 69.5435C30.9205 69.5435 31.4027 69.2776 31.4027 68.5399C31.4027 67.1675 28.6067 67.3213 28.6067 65.4605C28.6067 64.3631 29.3927 63.7793 30.4367 63.7793C31.5756 63.7793 32.2146 64.3277 32.1623 65.5897H31.3337C31.3424 64.9115 31.1269 64.4655 30.3759 64.4655C29.9007 64.4655 29.418 64.7051 29.418 65.3747C29.418 66.7381 32.2146 66.5408 32.2146 68.505C32.2146 69.8089 31.3079 70.2297 30.2816 70.2297C28.4434 70.2463 28.4434 68.8487 28.4607 68.2563H29.2456Z" fill="#FFFFFE"/>
</g>
<path fill-rule="evenodd" clip-rule="evenodd" d="M39.092 63.9072H39.9379L41.1117 69.2774H41.1285L42.3805 63.9072H43.4073L44.5375 69.2774H44.5548L45.8235 63.9072H46.6521L45.003 70.1008H44.0371L42.854 64.7312H42.8373L41.5772 70.1008H40.6107L39.092 63.9072Z" fill="#FFFFFE"/>
<path fill-rule="evenodd" clip-rule="evenodd" d="M48.7159 70.1008H49.5176L49.9841 68.6255H52.3922L52.8399 70.1008H53.7288L51.7016 63.9072H50.6909L48.7159 70.1008ZM52.1757 67.9393H50.1824L51.1575 64.6363H51.1747L52.1757 67.9393Z" fill="#FFFFFE"/>
<mask id="mask2" mask-type="alpha" maskUnits="userSpaceOnUse" x="55" y="63" width="12" height="8">
<path d="M55.5325 63.7793H66.2771V70.1975H55.5325V63.7793Z" fill="white"/>
</mask>
<g mask="url(#mask2)">
<path fill-rule="evenodd" clip-rule="evenodd" d="M59.607 63.9075V64.5942H57.9665V70.1011H57.173V64.5942H55.5325V63.9075H59.607Z" fill="#FFFFFE"/>
<path fill-rule="evenodd" clip-rule="evenodd" d="M65.3628 65.6149C65.3708 65.2627 65.3445 64.9115 65.1812 64.7143C65.0174 64.517 64.6463 64.4484 64.4814 64.4484C63.8263 64.4484 63.5677 64.8429 63.5413 64.9282C63.5149 64.9968 63.3598 65.1517 63.3598 66.2153V67.8708C63.3598 69.3885 63.8608 69.5687 64.4733 69.5687C64.7152 69.5687 65.4484 69.4829 65.457 68.274H66.2765C66.3115 70.2297 64.9215 70.2297 64.5164 70.2297C63.7401 70.2297 62.5484 70.1771 62.5484 67.7759V66.0266C62.5484 64.2768 63.3258 63.7793 64.5509 63.7793C65.7846 63.7793 66.2598 64.414 66.1816 65.6149H65.3628Z" fill="#FFFFFE"/>
</g>
<path fill-rule="evenodd" clip-rule="evenodd" d="M69.6597 70.1008V63.9072H70.4533V66.584H72.6373V63.9072H73.4308V70.1008H72.6373V67.2702H70.4533V70.1008H69.6597Z" fill="#FFFFFE"/>
<mask id="mask3" mask-type="alpha" maskUnits="userSpaceOnUse" x="77" y="63" width="22" height="8">
<path d="M77.0727 63.7793H98.2503V70.1975H77.0727V63.7793Z" fill="white"/>
</mask>
<g mask="url(#mask3)">
<path fill-rule="evenodd" clip-rule="evenodd" d="M77.0727 70.1011V63.9075H80.2835V64.5942H77.8668V66.5842H80.1111V67.2704H77.8668V69.4149H80.3347V70.1011H77.0727Z" fill="#FFFFFE"/>
<path fill-rule="evenodd" clip-rule="evenodd" d="M84.1834 68.2563V68.437C84.1834 69.2776 84.7184 69.5435 85.228 69.5435C85.8583 69.5435 86.3411 69.2776 86.3411 68.5399C86.3411 67.1675 83.5456 67.3213 83.5456 65.4605C83.5456 64.3631 84.3305 63.7793 85.3746 63.7793C86.514 63.7793 87.1524 64.3277 87.1001 65.5897H86.2721C86.2807 64.9115 86.0647 64.4655 85.3137 64.4655C84.8396 64.4655 84.3564 64.7051 84.3564 65.3747C84.3564 66.7381 87.1524 66.5408 87.1524 68.505C87.1524 69.8089 86.2457 70.2297 85.2194 70.2297C83.3813 70.2463 83.3813 68.8487 83.398 68.2563H84.1834Z" fill="#FFFFFE"/>
<path fill-rule="evenodd" clip-rule="evenodd" d="M95.2819 68.2563V68.437C95.2819 69.2776 95.8163 69.5435 96.3259 69.5435C96.9557 69.5435 97.4395 69.2776 97.4395 68.5399C97.4395 67.1675 94.6429 67.3213 94.6429 65.4605C94.6429 64.3631 95.4284 63.7793 96.4725 63.7793C97.6113 63.7793 98.2503 64.3277 98.1986 65.5897H97.3705C97.3786 64.9115 97.1626 64.4655 96.4116 64.4655C95.938 64.4655 95.4537 64.7051 95.4537 65.3747C95.4537 66.7381 98.2503 66.5408 98.2503 68.505C98.2503 69.8089 97.3441 70.2297 96.3168 70.2297C94.4791 70.2463 94.4791 68.8487 94.4964 68.2563H95.2819Z" fill="#FFFFFE"/>
</g>
<path fill-rule="evenodd" clip-rule="evenodd" d="M101.771 70.1008H102.564V63.9072H101.771V70.1008Z" fill="#FFFFFE"/>
<mask id="mask4" mask-type="alpha" maskUnits="userSpaceOnUse" x="106" y="63" width="12" height="8">
<path d="M106.302 63.7793H117.867V70.1975H106.302V63.7793Z" fill="white"/>
</mask>
<g mask="url(#mask4)">
<path fill-rule="evenodd" clip-rule="evenodd" d="M110.574 63.9075V70.1011H109.487L107.027 64.7315H107.009V70.1011H106.302V63.9075H107.423L109.849 69.209H109.865V63.9075H110.574Z" fill="#FFFFFE"/>
<path fill-rule="evenodd" clip-rule="evenodd" d="M116.95 65.6149C116.959 65.2627 116.933 64.9115 116.77 64.7143C116.605 64.517 116.234 64.4484 116.071 64.4484C115.414 64.4484 115.156 64.8429 115.129 64.9282C115.104 64.9968 114.948 65.1517 114.948 66.2153V67.8708C114.948 69.3885 115.449 69.5687 116.061 69.5687C116.303 69.5687 117.037 69.4829 117.046 68.274H117.866C117.899 70.2297 116.511 70.2297 116.105 70.2297C115.329 70.2297 114.137 70.1771 114.137 67.7759V66.0266C114.137 64.2768 114.914 63.7793 116.14 63.7793C117.374 63.7793 117.848 64.414 117.771 65.6149H116.95Z" fill="#FFFFFE"/>
</g>
<path fill-rule="evenodd" clip-rule="evenodd" d="M121.196 70.1008V63.9072H124.406V64.594H121.991V66.584H124.234V67.2702H121.991V69.4146H124.458V70.1008H121.196Z" fill="#FFFFFE"/>
<mask id="mask5" mask-type="alpha" maskUnits="userSpaceOnUse" x="0" y="30" width="153" height="41">
<path d="M0.0323181 30.2759H152.711V70.1973H0.0323181V30.2759Z" fill="white"/>
</mask>
<g mask="url(#mask5)">
<path fill-rule="evenodd" clip-rule="evenodd" d="M133.606 70.1008H132.812V65.0143L131.915 65.6147V64.8594C132.113 64.7741 132.682 64.3452 132.924 64.1479H133.606V70.1008Z" fill="#FFFFFE"/>
<path fill-rule="evenodd" clip-rule="evenodd" d="M139.051 66.6007C138.456 66.6007 138.309 65.9579 138.309 65.5205C138.309 65.0745 138.542 64.6284 139.051 64.6284C139.561 64.6284 139.793 65.0745 139.793 65.5205C139.793 65.9579 139.646 66.6007 139.051 66.6007ZM139.543 66.9438C140.251 66.8071 140.587 66.2233 140.587 65.5462C140.587 64.6118 139.992 64.0537 139.051 64.0537C138.11 64.0537 137.515 64.6118 137.515 65.5462C137.515 66.2233 137.852 66.8071 138.56 66.9438V66.9353V66.953C137.678 67.0387 137.455 67.7244 137.455 68.4969C137.455 69.5686 138.007 70.2296 139.051 70.2296C140.095 70.2296 140.648 69.5686 140.648 68.4969C140.648 67.7244 140.424 67.0387 139.543 66.953V66.9353V66.9438ZM139.051 69.5686C138.456 69.5686 138.248 69.0202 138.248 68.505C138.248 67.9732 138.309 67.2875 139.051 67.2875C139.793 67.2875 139.854 67.9732 139.854 68.505C139.854 69.0202 139.646 69.5686 139.051 69.5686Z" fill="#FFFFFE"/>
<path fill-rule="evenodd" clip-rule="evenodd" d="M146.464 64.1479V64.8342H144.462V66.5668L144.479 66.584C144.609 66.3267 145.022 66.1374 145.429 66.1374C146.283 66.1374 146.68 66.7727 146.68 68.1446C146.68 69.0973 146.558 70.2295 145.057 70.2295C143.815 70.2295 143.581 69.5513 143.581 68.7536H144.375C144.375 69.2173 144.557 69.6548 145.083 69.6548C145.834 69.6548 145.885 68.9252 145.885 68.3424C145.885 67.4755 145.861 66.7984 145.118 66.7984C144.687 66.7984 144.453 67.0981 144.384 67.4932H143.668V64.1479H146.464Z" fill="#FFFFFE"/>
<path fill-rule="evenodd" clip-rule="evenodd" d="M150.632 66.6356C151.348 66.6951 151.857 66.4126 151.857 65.6492C151.857 65.1082 151.615 64.7142 151.029 64.7142C150.373 64.7142 150.27 65.2031 150.278 65.6835H149.484C149.424 64.6713 149.916 64.0537 151.029 64.0537C152.046 64.0537 152.651 64.5598 152.651 65.5977C152.651 66.7208 151.814 66.8924 151.469 66.9787V66.9958C152.41 67.124 152.711 67.622 152.711 68.5136C152.711 69.6721 152.081 70.2296 150.935 70.2296C149.26 70.2296 149.389 68.7971 149.389 68.4621H150.184C150.192 69.0545 150.287 69.5686 151.002 69.5686C151.702 69.5686 151.918 69.1311 151.918 68.4969C151.918 67.5357 151.556 67.3304 150.632 67.3304V66.6356Z" fill="#FFFFFE"/>
<path fill-rule="evenodd" clip-rule="evenodd" d="M27.8999 30.2759H0V36.0851H10.0167V55.2272H18.0685V36.0851H27.8999V30.2759Z" fill="#FFFFFE"/>
</g>
<path fill-rule="evenodd" clip-rule="evenodd" d="M30.3581 55.2272H38.5328V30.2759H30.3581V55.2272Z" fill="#FFFFFE"/>
<path fill-rule="evenodd" clip-rule="evenodd" d="M152.711 30.2759H124.814V36.0851H134.83V55.2272H142.878V36.0851H152.711V30.2759Z" fill="#FFFFFE"/>
<path fill-rule="evenodd" clip-rule="evenodd" d="M111.229 51.2526C115.47 51.2526 117.487 47.4184 117.487 42.6894C117.487 37.961 115.163 34.1289 111.229 34.1279C106.62 34.1279 104.851 37.961 104.851 42.6894C104.851 47.4184 106.684 51.2526 111.229 51.2526ZM96.7181 42.6894C96.7079 34.0067 103.214 29.7168 111.229 29.7168C119.246 29.7168 125.734 34.5578 125.744 42.6894C125.756 50.8843 119.246 55.6626 111.229 55.6626C103.214 55.6626 96.7278 51.9243 96.7181 42.6894Z" fill="#FFFFFE"/>
<path fill-rule="evenodd" clip-rule="evenodd" d="M93.8994 38.347C91.4838 38.347 89.0681 38.347 86.6486 38.347C86.3141 37.0818 85.673 35.9614 84.5314 35.213C83.1221 34.2871 81.5059 34.1815 79.9015 34.597C78.6964 34.9101 77.3593 35.9539 77.863 37.3477C78.1625 38.1846 79.053 38.5625 79.9015 38.7909C83.942 39.8835 87.9928 40.0942 91.6572 42.3126C93.462 43.4062 94.4452 45.2944 94.4182 47.2753C94.3051 55.772 83.8629 56.8147 77.0716 55.4299C72.6858 54.5352 68.5041 51.31 68.8257 46.5424C71.368 46.5424 73.9065 46.5424 76.4472 46.5424C76.9137 47.5669 76.7284 48.6236 77.4368 49.5966C77.8307 50.1386 78.2649 50.6066 78.8122 50.8859C79.2502 51.109 79.6645 51.3856 80.1477 51.5094C81.4138 51.8348 82.7132 51.8611 83.9183 51.4724C84.8056 51.1867 85.583 50.5921 85.9908 49.7022C86.2058 49.2278 86.2009 48.6584 86.0221 48.1373C85.9203 47.8419 85.7349 47.5664 85.5852 47.3278C85.0023 46.4095 83.9507 46.1854 82.9422 45.8712C78.5143 44.4854 72.6761 45.0419 70.2469 40.3912C69.5299 39.0172 69.4927 37.4624 69.8612 35.9131C70.1241 34.8023 70.8433 33.9076 71.6158 33.1774C72.3496 32.4885 73.1545 31.8135 74.1156 31.3809C78.8171 29.266 84.2163 29.496 88.8068 31.4978C91.5306 32.6842 93.782 35.206 93.8994 38.347Z" fill="#FFFFFE"/>
<path fill-rule="evenodd" clip-rule="evenodd" d="M66.2587 38.243C63.8419 38.243 61.4279 38.243 59.0106 38.243C58.6739 36.9768 58.0323 35.8558 56.8912 35.1068C55.4835 34.1815 53.8657 34.0748 52.2614 34.4914C51.0562 34.8039 49.7196 35.8472 50.2228 37.2416C50.5223 38.0768 51.4134 38.4559 52.263 38.6842C56.3035 39.7779 60.3553 39.988 64.017 42.208C65.8245 43.3012 66.8039 45.1888 66.7791 47.1686C66.6676 55.6669 56.2226 56.7091 49.4314 55.3222C45.0461 54.4274 40.8629 51.2049 41.1893 46.4363C43.7311 46.4363 46.2685 46.4363 48.807 46.4363C49.273 47.4619 49.0909 48.5196 49.7972 49.4899C50.1905 50.0319 50.6252 50.5 51.1736 50.7809C51.61 51.0028 52.0238 51.2789 52.507 51.4044C53.773 51.7287 55.0741 51.756 56.2781 51.3674C57.1654 51.0806 57.945 50.4865 58.3506 49.5966C58.5661 49.1227 58.5645 48.5528 58.383 48.0301C58.2801 47.7363 58.098 47.4581 57.945 47.2206C57.361 46.3028 56.3115 46.0803 55.3052 45.7656C50.8779 44.3793 45.0364 44.9357 42.6067 40.2872C41.8897 38.9105 41.8525 37.3574 42.221 35.808C42.4839 34.6946 43.2026 33.8014 43.9767 33.0718C44.7094 32.3813 45.5137 31.7069 46.477 31.2748C51.1774 29.1609 56.5761 29.3904 61.1671 31.3922C63.891 32.5791 66.1407 35.0993 66.2587 38.243Z" fill="#FFFFFE"/>
<path fill-rule="evenodd" clip-rule="evenodd" d="M51.6666 23.8261H75.3466V0.261719H51.6666V23.8261Z" fill="#FFFFFE"/>
<path fill-rule="evenodd" clip-rule="evenodd" d="M77.3652 23.8261H101.045V0.261719H77.3652V23.8261Z" fill="#FFFFFE"/>
<path fill-rule="evenodd" clip-rule="evenodd" d="M52.4203 23.0761H74.5929V1.01172H52.4203V23.0761Z" fill="#070808"/>
<path fill-rule="evenodd" clip-rule="evenodd" d="M78.1183 23.0761H100.291V1.01172H78.1183V23.0761Z" fill="#DA322A"/>
<path fill-rule="evenodd" clip-rule="evenodd" d="M97.4604 9.61502H91.6459V3.82886H86.7639V9.61502H80.9494V14.4726H86.7639V20.2588H91.6459V14.4726H97.4604V9.61502Z" fill="#FFFFFE"/>
<path fill-rule="evenodd" clip-rule="evenodd" d="M71.7624 3.82886H55.2513V7.63573H60.9436V20.2588H66.0696V7.63573H71.7624V3.82886Z" fill="#FFFFFE"/>
</g>
<defs>
<clipPath id="clip0">
<rect width="153" height="70.2295" fill="white"/>
</clipPath>
</defs>
</svg>
